<svg width="118" height="71" viewBox="0 0 118 71" fill="none" xmlns="http://www.w3.org/2000/svg">
<g clip-path="url(#clip0_2_87)">
<path d="M69.8916 24.8658C69.8916 29.7937 68.9938 33.9137 67.1982 37.2255C65.4026 40.5176 62.799 43.0014 59.3872 44.6774C55.9956 46.3334 51.8756 47.1613 47.0275 47.1613H35.1465V3.40813H48.3442C52.7934 3.40813 56.624 4.22613 59.8363 5.86213C63.0484 7.47818 65.5222 9.88231 67.258 13.0745C69.0138 16.2468 69.8916 20.1772 69.8916 24.8658ZM64.5347 25.0453C64.5347 21.1148 63.8763 17.8728 62.5595 15.319C61.2627 12.7653 59.3474 10.8699 56.8135 9.63292C54.2997 8.37599 51.2172 7.74754 47.5661 7.74754H40.2341V42.7919H46.4289C52.4542 42.7919 56.9732 41.3056 59.9858 38.3329C63.0184 35.3601 64.5347 30.931 64.5347 25.0453ZM71.9674 7.2687C69.5532 7.2687 67.3785 7.68768 65.4434 8.52563C63.528 9.34363 61.8919 10.5407 60.5353 12.1169C59.1985 13.6731 58.1711 15.5585 57.4529 17.7731C56.7345 19.9876 56.3755 22.4816 56.3755 25.2548C56.3755 28.9258 56.944 32.1181 58.0813 34.8314C59.2385 37.5248 60.9543 39.6097 63.2287 41.0861C65.523 42.5626 68.3861 43.3006 71.8177 43.3006C73.7729 43.3006 75.6085 43.1411 77.3243 42.8219C79.06 42.4827 80.7459 42.0637 82.3819 41.565V45.9942C80.7858 46.5927 79.11 47.0316 77.3542 47.311C75.5985 47.6101 73.5135 47.7598 71.0995 47.7598C66.6503 47.7598 62.9295 46.8421 59.9367 45.0066C56.964 43.1511 54.7295 40.5374 53.233 37.1656C51.7567 33.7939 51.0185 29.8137 51.0185 25.2248C51.0185 21.9129 51.4774 18.8903 52.3951 16.157C53.3329 13.4037 54.6895 11.0295 56.4653 9.03439C58.2608 7.03926 60.4555 5.50302 63.0492 4.42565C65.6627 3.32832 68.6555 2.77966 72.0272 2.77966C74.2417 2.77966 76.3766 2.99913 78.4316 3.43806C80.4866 3.87699 82.3421 4.50546 83.998 5.32346L81.9629 9.63292C80.5664 8.99449 79.0301 8.44583 77.3542 7.98694C75.6982 7.50812 73.9027 7.2687 71.9674 7.2687Z" fill="white"/>
<path d="M1.57031 57.1746H5.07031C6.84635 57.1746 8.22656 57.6668 9.21094 58.6512C10.1953 59.6356 10.6875 61.0106 10.6875 62.7762C10.6875 64.6616 10.1745 66.1043 9.14844 67.1043C8.1224 68.0991 6.65104 68.5965 4.73438 68.5965H1.57031V57.1746ZM2.89844 58.3231V67.4481H4.51562C6.09375 67.4481 7.28125 67.06 8.07812 66.284C8.88021 65.5027 9.28125 64.3595 9.28125 62.8543C9.28125 61.3439 8.90625 60.2111 8.15625 59.4559C7.40625 58.7007 6.29688 58.3231 4.82812 58.3231H2.89844ZM18.0219 56.3387V56.5027C17.7875 56.8465 17.4438 57.2658 16.9906 57.7606C16.5375 58.2554 16.1469 58.6356 15.8188 58.9012H14.9516V58.7059C15.2016 58.383 15.4698 57.9923 15.7563 57.534C16.0479 57.0757 16.2771 56.6772 16.4438 56.3387H18.0219ZM16.2641 68.7527C14.9932 68.7527 13.9932 68.3673 13.2641 67.5965C12.5349 66.8205 12.1703 65.7475 12.1703 64.3777C12.1703 63.008 12.5089 61.9168 13.1859 61.1043C13.8682 60.2866 14.7615 59.8777 15.8656 59.8777C16.975 59.8777 17.8422 60.2293 18.4672 60.9324C19.0974 61.6356 19.4125 62.5679 19.4125 63.7293V64.5496H13.5141C13.5401 65.5496 13.7927 66.3126 14.2719 66.8387C14.751 67.3595 15.4385 67.6199 16.3344 67.6199C17.2354 67.6199 18.1391 67.4272 19.0453 67.0418V68.1981C18.5818 68.4012 18.1443 68.5444 17.7328 68.6277C17.3214 68.7111 16.8318 68.7527 16.2641 68.7527ZM18.0219 63.4949C18.0219 62.6824 17.8396 62.0574 17.475 61.6199C17.1104 61.1824 16.587 60.9637 15.9047 60.9637C15.2276 60.9637 14.6833 61.1876 14.2719 61.6356C13.8604 62.0783 13.6182 62.6981 13.5453 63.4949H18.0219ZM22.5281 56.4402V59.3934C22.5281 60.0236 22.5073 60.6173 22.4656 61.1746H22.5281C23.1323 60.3205 24.0125 59.8934 25.1688 59.8934C26.3302 59.8934 27.2182 60.2788 27.8328 61.0496C28.4578 61.8152 28.7703 62.9038 28.7703 64.3152C28.7703 65.7215 28.4552 66.8126 27.825 67.5887C27.2 68.3647 26.3146 68.7527 25.1688 68.7527C24.0229 68.7527 23.1427 68.3335 22.5281 67.4949H22.4344L22.1609 68.5965H21.2313V56.4402H22.5281ZM27.4188 64.284C27.4188 63.1746 27.2234 62.3491 26.8328 61.8074C26.4422 61.2606 25.8224 60.9871 24.9734 60.9871C24.1245 60.9871 23.5047 61.2397 23.1141 61.7449C22.7234 62.2501 22.5281 63.1043 22.5281 64.3074C22.5281 65.5054 22.7286 66.3673 23.1297 66.8934C23.5307 67.409 24.174 67.6668 25.0594 67.6668C25.8458 67.6668 26.4344 67.3804 26.825 66.8074C27.2208 66.2345 27.4188 65.3934 27.4188 64.284ZM30.1594 64.3074C30.1594 62.9116 30.5057 61.8257 31.1984 61.0496C31.8964 60.2684 32.8547 59.8777 34.0734 59.8777C35.2974 59.8777 36.2583 60.2762 36.9562 61.0731C37.6698 61.8647 38.0266 62.9507 38.0266 64.3309C38.0266 65.7111 37.675 66.7944 36.9719 67.5809C36.2687 68.3621 35.2974 68.7527 34.0578 68.7527C34.037 68.7527 34.0161 68.7527 33.9953 68.7527C32.8651 68.7527 31.9432 68.3517 31.2297 67.5496C30.5161 66.7475 30.1594 65.7033 30.1594 64.4168C30.1594 64.3804 30.1594 64.3439 30.1594 64.3074ZM34.0734 60.9871C32.3599 60.9871 31.5031 62.0939 31.5031 64.3074C31.5031 65.4012 31.7219 66.2345 32.1594 66.8074C32.6021 67.3804 33.2453 67.6668 34.0891 67.6668C34.938 67.6668 35.5812 67.383 36.0187 66.8152C36.4615 66.2423 36.6828 65.409 36.6828 64.3152C36.6828 63.2215 36.4615 62.3934 36.0187 61.8309C35.5812 61.2684 34.9328 60.9871 34.0734 60.9871ZM43.8219 59.8777C44.1969 59.8777 44.538 59.909 44.8453 59.9715L44.6656 61.1746C44.3115 61.0965 43.999 61.0574 43.7281 61.0574C43.0302 61.0574 42.4365 61.3387 41.9469 61.9012C41.4573 62.4585 41.2125 63.159 41.2125 64.0027V68.5965H39.9156V60.034H40.9859L41.1344 61.6199H41.1969C41.5146 61.0574 41.8974 60.6277 42.3453 60.3309C42.7984 60.0288 43.2906 59.8777 43.8219 59.8777ZM46.3672 60.6277C47.263 60.1382 48.2266 59.8934 49.2578 59.8934C50.2891 59.8934 51.0469 60.1225 51.5312 60.5809C52.0208 61.034 52.2656 61.758 52.2656 62.7527V68.5965H51.3125L51.0547 67.3777H50.9922C50.5651 67.9142 50.138 68.2788 49.7109 68.4715C49.2891 68.659 48.7604 68.7527 48.125 68.7527C47.276 68.7527 46.6094 68.534 46.125 68.0965C45.6406 67.6538 45.3984 67.0314 45.3984 66.2293C45.3984 64.5054 46.7839 63.5991 49.5547 63.5106L51.0078 63.4637V62.9324C51.0078 62.2554 50.862 61.7606 50.5703 61.4481C50.2839 61.1304 49.7995 60.9715 49.1172 60.9715C48.4349 60.9715 47.651 61.1876 46.7656 61.6199L46.3672 60.6277ZM46.7656 66.2449C46.7656 66.7085 46.9062 67.0652 47.1875 67.3152C47.4688 67.56 47.8672 67.6824 48.3828 67.6824C49.1901 67.6824 49.8229 67.4611 50.2812 67.0184C50.7448 66.5705 50.9766 65.9507 50.9766 65.159V64.3856L49.6797 64.4402C48.6484 64.4767 47.9036 64.6382 47.4453 64.9246C46.9922 65.2059 46.7656 65.646 46.7656 66.2449ZM63.1688 68.7527C61.4813 68.7527 60.1818 68.2423 59.2703 67.2215C58.3589 66.2007 57.9031 64.7501 57.9031 62.8699C57.9031 62.8439 57.9031 62.8179 57.9031 62.7918C57.9031 61.6564 58.1219 60.6486 58.5594 59.7684C59.0021 58.8882 59.6375 58.2085 60.4656 57.7293C61.299 57.2501 62.2547 57.0106 63.3328 57.0106C63.3589 57.0106 63.3823 57.0106 63.4031 57.0106C64.5958 57.0106 65.6427 57.2293 66.5438 57.6668L65.9813 58.8074C65.1115 58.4012 64.2469 58.1981 63.3875 58.1981C62.1323 58.1981 61.1401 58.6173 60.4109 59.4559C59.687 60.2892 59.325 61.4429 59.325 62.9168C59.325 64.3856 59.674 65.5314 60.3719 66.3543C61.075 67.1668 62.075 67.5731 63.3719 67.5731C64.174 67.5731 65.0828 67.4298 66.0984 67.1434V68.3074C65.2859 68.6043 64.3094 68.7527 63.1688 68.7527ZM68.3234 60.6277C69.2193 60.1382 70.1828 59.8934 71.2141 59.8934C72.2453 59.8934 73.0031 60.1225 73.4875 60.5809C73.9771 61.034 74.2219 61.758 74.2219 62.7527V68.5965H73.2688L73.0109 67.3777H72.9484C72.5214 67.9142 72.0943 68.2788 71.6672 68.4715C71.2453 68.659 70.7167 68.7527 70.0813 68.7527C69.2323 68.7527 68.5656 68.534 68.0813 68.0965C67.5969 67.6538 67.3547 67.0314 67.3547 66.2293C67.3547 64.5054 68.7401 63.5991 71.5109 63.5106L72.9641 63.4637V62.9324C72.9641 62.2554 72.8182 61.7606 72.5266 61.4481C72.2401 61.1304 71.7557 60.9715 71.0734 60.9715C70.3911 60.9715 69.6073 61.1876 68.7219 61.6199L68.3234 60.6277ZM68.7219 66.2449C68.7219 66.7085 68.8625 67.0652 69.1438 67.3152C69.425 67.56 69.8234 67.6824 70.3391 67.6824C71.1464 67.6824 71.7792 67.4611 72.2375 67.0184C72.701 66.5705 72.9328 65.9507 72.9328 65.159V64.3856L71.6359 64.4402C70.6047 64.4767 69.8599 64.6382 69.4016 64.9246C68.9484 65.2059 68.7219 65.646 68.7219 66.2449ZM80.4156 59.8777C80.7906 59.8777 81.1318 59.909 81.4391 59.9715L81.2594 61.1746C80.9052 61.0965 80.5927 61.0574 80.3219 61.0574C79.624 61.0574 79.0302 61.3387 78.5406 61.9012C78.051 62.4585 77.8063 63.159 77.8063 64.0027V68.5965H76.5094V60.034H77.5797L77.7281 61.6199H77.7906C78.1083 61.0574 78.4911 60.6277 78.9391 60.3309C79.3922 60.0288 79.8844 59.8777 80.4156 59.8777ZM82.1562 64.3074C82.1562 62.9116 82.5026 61.8257 83.1953 61.0496C83.8932 60.2684 84.8516 59.8777 86.0703 59.8777C87.2943 59.8777 88.2552 60.2762 88.9531 61.0731C89.6667 61.8647 90.0234 62.9507 90.0234 64.3309C90.0234 65.7111 89.6719 66.7944 88.9688 67.5809C88.2656 68.3621 87.2943 68.7527 86.0547 68.7527C86.0339 68.7527 86.013 68.7527 85.9922 68.7527C84.862 68.7527 83.9401 68.3517 83.2266 67.5496C82.513 66.7475 82.1562 65.7033 82.1562 64.4168C82.1562 64.3804 82.1562 64.3439 82.1562 64.3074ZM86.0703 60.9871C84.3568 60.9871 83.5 62.0939 83.5 64.3074C83.5 65.4012 83.7188 66.2345 84.1562 66.8074C84.599 67.3804 85.2422 67.6668 86.0859 67.6668C86.9349 67.6668 87.5781 67.383 88.0156 66.8152C88.4583 66.2423 88.6797 65.409 88.6797 64.3152C88.6797 63.2215 88.4583 62.3934 88.0156 61.8309C87.5781 61.2684 86.9297 60.9871 86.0703 60.9871ZM93.2094 68.5965H91.9125V56.4402H93.2094V68.5965ZM95.45 57.7137C95.45 57.4272 95.5203 57.2137 95.6609 57.0731C95.8016 56.9272 95.9839 56.8543 96.2078 56.8543C96.4318 56.8543 96.6167 56.9272 96.7625 57.0731C96.9083 57.2189 96.9812 57.4324 96.9812 57.7137C96.9812 57.9949 96.9083 58.2111 96.7625 58.3621C96.6167 58.508 96.4318 58.5809 96.2078 58.5809C95.9839 58.5809 95.8016 58.508 95.6609 58.3621C95.5203 58.2111 95.45 57.9949 95.45 57.7137ZM96.8562 68.5965H95.5594V60.034H96.8562V68.5965ZM103.253 59.8777C104.295 59.8777 105.073 60.1304 105.589 60.6356C106.105 61.1408 106.363 61.9324 106.363 63.0106V68.5965H105.066V63.0574C105.066 62.3543 104.904 61.8335 104.581 61.4949C104.264 61.1564 103.769 60.9871 103.097 60.9871C102.196 60.9871 101.537 61.2293 101.12 61.7137C100.709 62.1981 100.503 62.9949 100.503 64.1043V68.5965H99.2063V60.034H100.261L100.472 61.2059H100.534C100.8 60.784 101.17 60.4585 101.644 60.2293C102.123 59.9949 102.659 59.8777 103.253 59.8777ZM112.252 68.7527C110.986 68.7527 109.986 68.3673 109.252 67.5965C108.522 66.8205 108.158 65.7449 108.158 64.3699C108.158 62.9949 108.496 61.9038 109.173 61.0965C109.856 60.284 110.752 59.8777 111.861 59.8777C112.976 59.8777 113.843 60.2345 114.463 60.9481C115.088 61.6408 115.4 62.5679 115.4 63.7293V64.5496H109.502C109.528 65.5496 109.78 66.3126 110.259 66.8387C110.739 67.3595 111.429 67.6199 112.33 67.6199C113.231 67.6199 114.129 67.4272 115.025 67.0418V68.1981C114.572 68.396 114.137 68.5366 113.72 68.6199C113.309 68.7085 112.819 68.7527 112.252 68.7527ZM114.009 63.4949C114.009 62.6824 113.827 62.06 113.463 61.6277C113.098 61.1902 112.574 60.9715 111.892 60.9715C111.215 60.9715 110.671 61.1929 110.259 61.6356C109.848 62.0783 109.606 62.6981 109.533 63.4949H114.009Z" fill="white"/>
</g>
<defs>
<clipPath id="clip0_2_87">
<rect width="118" height="71" fill="white"/>
</clipPath>
</defs>
</svg>
