<svg width="25" height="25" viewBox="0 0 25 25" fill="none" xmlns="http://www.w3.org/2000/svg">
<path d="M13.0859 0.317383C8.07617 0.317383 3.125 3.65723 3.125 9.0625C3.125 12.5 5.05859 14.4531 6.23047 14.4531C6.71387 14.4531 6.99219 13.1055 6.99219 12.7246C6.99219 12.2705 5.83496 11.3037 5.83496 9.41406C5.83496 5.48828 8.82324 2.70508 12.6904 2.70508C16.0156 2.70508 18.4766 4.59473 18.4766 8.06641C18.4766 10.6592 17.4365 15.5225 14.0674 15.5225C12.8516 15.5225 11.8115 14.6436 11.8115 13.3838C11.8115 11.5381 13.1006 9.75098 13.1006 7.84668C13.1006 4.61426 8.51562 5.2002 8.51562 9.10645C8.51562 9.92676 8.61816 10.835 8.98438 11.582C8.31055 14.4824 6.93359 18.8037 6.93359 21.792C6.93359 22.7148 7.06543 23.623 7.15332 24.5459C7.31934 24.7314 7.23633 24.7119 7.49023 24.6191C9.95117 21.25 9.86328 20.5908 10.9766 16.1816C11.5771 17.3242 13.1299 17.9395 14.3604 17.9395C19.5459 17.9395 21.875 12.8857 21.875 8.33008C21.875 3.48145 17.6855 0.317383 13.0859 0.317383Z" fill="white"/>
</svg>
