<svg width="70" height="66" viewBox="0 0 70 66" fill="none" xmlns="http://www.w3.org/2000/svg">
<path d="M50.2486 32.0121C50.2486 38.9112 48.9918 44.6792 46.4779 49.3157C43.964 53.9246 40.319 57.402 35.5425 59.7484C30.7943 62.0667 25.0263 63.2258 18.2389 63.2258H1.60547V1.97141H20.0823C26.3111 1.97141 31.674 3.11661 36.1712 5.40701C40.6681 7.66948 44.1315 11.0353 46.5616 15.5044C49.0198 19.9455 50.2486 25.4482 50.2486 32.0121ZM42.7489 32.2635C42.7489 26.7608 41.8272 22.222 39.9837 18.6467C38.1682 15.0714 35.4867 12.4179 31.9393 10.6861C28.4199 8.92641 24.1045 8.04658 18.993 8.04658H8.72806V57.1087H17.4009C25.8362 57.1087 32.1629 55.0279 36.3805 50.8661C40.6261 46.7042 42.7489 40.5034 42.7489 32.2635ZM53.1547 7.3762C49.7749 7.3762 46.7303 7.96278 44.0211 9.13591C41.3396 10.2811 39.0491 11.957 37.1498 14.1636C35.2783 16.3423 33.8399 18.9819 32.8344 22.0823C31.8287 25.1826 31.326 28.6743 31.326 32.5568C31.326 37.6961 32.122 42.1653 33.7142 45.964C35.3343 49.7348 37.7365 52.6536 40.9205 54.7206C44.1326 56.7876 48.1409 57.8209 52.9452 57.8209C55.6824 57.8209 58.2523 57.5976 60.6544 57.1507C63.0844 56.6758 65.4447 56.0892 67.7351 55.391V61.5919C65.5005 62.4298 63.1544 63.0443 60.6962 63.4354C58.2383 63.8542 55.3193 64.0638 51.9397 64.0638C45.7108 64.0638 40.5017 62.7789 36.3118 60.2093C32.15 57.6116 29.0217 53.9524 26.9266 49.2319C24.8598 44.5114 23.8263 38.9392 23.8263 32.5148C23.8263 27.8781 24.4687 23.6465 25.7536 19.8198C27.0664 15.9652 28.9657 12.6414 31.4518 9.84817C33.9655 7.05499 37.038 4.90425 40.6692 3.39593C44.3282 1.85968 48.518 1.09155 53.2385 1.09155C56.3388 1.09155 59.3276 1.3988 62.2046 2.0133C65.0816 2.62781 67.6793 3.50766 69.9976 4.65286L67.1484 10.6861C65.1934 9.79231 63.0426 9.02418 60.6962 8.38174C58.3779 7.71139 55.8642 7.3762 53.1547 7.3762Z" fill="black"/>
</svg>
